PathFileType	4	(X/Y/Z)	output.trc
DataRate	CameraRate	NumFrames	NumMarkers	Units	OrigDataRate	OrigDataStartFrame	OrigNumFrames
100	100	15	23	m	100	589	4710
Frame#	Time	C7			T8			EL			EM			US			RS			AA			Fore_Clus_1			Fore_Clus_2			Fore_Clus_3			Fore_Clus_4			Hum_Clus_1			Hum_Clus_2			Hum_Clus_3			Hum_Clus_4			Thor_Clus_1			Thor_Clus_2			Thor_Clus_3			Thor_Clus_4			IJ			PX			GH			Thor_Clus_5		
		X1	Y1	Z1	X2	Y2	Z2	X3	Y3	Z3	X4	Y4	Z4	X5	Y5	Z5	X6	Y6	Z6	X7	Y7	Z7	X8	Y8	Z8	X9	Y9	Z9	X10	Y10	Z10	X11	Y11	Z11	X12	Y12	Z12	X13	Y13	Z13	X14	Y14	Z14	X15	Y15	Z15	X16	Y16	Z16	X17	Y17	Z17	X18	Y18	Z18	X19	Y19	Z19	X20	Y20	Z20	X21	Y21	Z21	X22	Y22	Z22	X23	Y23	Z23
588	5.880000	-0.129729	1.417274	-0.141317	-0.150157	1.199744	-0.191756	-0.297005	1.061202	0.008742	-0.257392	1.047535	-0.040053	-0.148972	1.113767	0.178648	-0.144292	1.158330	0.153796	-0.252556	1.339030	-0.017487	-0.204527	1.107936	0.164549	-0.172016	1.129140	0.203150	-0.171982	1.153775	0.189097	-0.206223	1.147909	0.143447	-0.286542	1.150018	0.054067	-0.321341	1.161811	0.006139	-0.320596	1.225474	0.007698	-0.279698	1.223823	0.050258	-0.006571	1.311395	-0.022416	-0.041808	1.261979	0.036181	-0.043615	1.308596	0.002096	0.011958	1.265589	0.000593	-0.065369	1.335526	-0.062504	-0.031527	1.141121	-0.012234	-0.228266	1.320872	-0.033533	-0.050037	1.282039	0.025744
589	5.890000	-0.129672	1.417317	-0.141253	-0.150160	1.199806	-0.191744	-0.296977	1.061198	0.008737	-0.257369	1.047535	-0.040063	-0.148938	1.113731	0.178644	-0.144254	1.158294	0.153794	-0.252505	1.339073	-0.017429	-0.204478	1.107926	0.164552	-0.171983	1.129114	0.203169	-0.171933	1.153751	0.189103	-0.206167	1.147885	0.143450	-0.286499	1.150033	0.054077	-0.321303	1.161828	0.006139	-0.320566	1.225491	0.007712	-0.279650	1.223832	0.050278	-0.006530	1.311380	-0.022397	-0.041774	1.261960	0.036197	-0.043559	1.308650	0.002146	0.011993	1.265563	0.000586	-0.065323	1.335534	-0.062468	-0.031525	1.141108	-0.012250	-0.228225	1.320868	-0.033510	-0.050008	1.282022	0.025765
590	5.900000	-0.129620	1.417351	-0.141197	-0.150163	1.199854	-0.191730	-0.296948	1.061195	0.008732	-0.257345	1.047537	-0.040074	-0.148901	1.113694	0.178641	-0.144213	1.158257	0.153791	-0.252456	1.339109	-0.017375	-0.204460	1.107884	0.164586	-0.171944	1.129069	0.203172	-0.171886	1.153714	0.189108	-0.206136	1.147858	0.143461	-0.286474	1.150022	0.054089	-0.321279	1.161821	0.006162	-0.320540	1.225484	0.007736	-0.279611	1.223839	0.050319	-0.006499	1.311348	-0.022389	-0.041755	1.261927	0.036214	-0.043502	1.308710	0.002230	0.012023	1.265538	0.000586	-0.065281	1.335537	-0.062436	-0.031520	1.141093	-0.012261	-0.228187	1.320868	-0.033485	-0.049963	1.282013	0.025765
591	5.910000	-0.129573	1.417372	-0.141150	-0.150163	1.199887	-0.191713	-0.296917	1.061194	0.008726	-0.257320	1.047541	-0.040086	-0.148863	1.113657	0.178637	-0.144169	1.158220	0.153788	-0.252411	1.339136	-0.017326	-0.204404	1.107872	0.164574	-0.171882	1.129046	0.203181	-0.171818	1.153686	0.189098	-0.206093	1.147853	0.143470	-0.286437	1.150030	0.054105	-0.321252	1.161836	0.006172	-0.320506	1.225496	0.007756	-0.279570	1.223835	0.050331	-0.006460	1.311311	-0.022371	-0.041723	1.261909	0.036218	-0.043461	1.308676	0.002225	0.012047	1.265510	0.000595	-0.065241	1.335534	-0.062408	-0.031513	1.141076	-0.012266	-0.228151	1.320870	-0.033460	-0.049939	1.281996	0.025772
592	5.920000	-0.129524	1.417386	-0.141113	-0.150155	1.199910	-0.191700	-0.296884	1.061194	0.008719	-0.257293	1.047548	-0.040100	-0.148819	1.113624	0.178630	-0.144123	1.158186	0.153781	-0.252366	1.339156	-0.017289	-0.204373	1.107842	0.164589	-0.171829	1.128999	0.203182	-0.171766	1.153647	0.189101	-0.206046	1.147825	0.143481	-0.286412	1.150013	0.054119	-0.321222	1.161824	0.006194	-0.320482	1.225483	0.007766	-0.279539	1.223822	0.050349	-0.006421	1.311289	-0.022363	-0.041708	1.261872	0.036226	-0.043437	1.308648	0.002230	0.012079	1.265475	0.000604	-0.065200	1.335528	-0.062386	-0.031502	1.141058	-0.012269	-0.228117	1.320875	-0.033433	-0.049904	1.281962	0.025767
593	5.930000	-0.129482	1.417382	-0.141088	-0.150145	1.199911	-0.191681	-0.296849	1.061195	0.008711	-0.257266	1.047557	-0.040116	-0.148777	1.113590	0.178626	-0.144075	1.158152	0.153777	-0.252325	1.339163	-0.017258	-0.204317	1.107841	0.164591	-0.171754	1.128978	0.203166	-0.171700	1.153631	0.189101	-0.205985	1.147814	0.143477	-0.286381	1.150026	0.054127	-0.321195	1.161826	0.006207	-0.320445	1.225489	0.007787	-0.279487	1.223834	0.050364	-0.006398	1.311248	-0.022363	-0.041662	1.261845	0.036230	-0.043400	1.308628	0.002248	0.012103	1.265491	0.000633	-0.065163	1.335513	-0.062368	-0.031485	1.141038	-0.012262	-0.228086	1.320883	-0.033406	-0.049863	1.281936	0.025800
594	5.940000	-0.129438	1.417371	-0.141073	-0.150122	1.199902	-0.191667	-0.296812	1.061197	0.008701	-0.257236	1.047569	-0.040134	-0.148731	1.113560	0.178619	-0.144025	1.158121	0.153769	-0.252285	1.339162	-0.017239	-0.204290	1.107806	0.164608	-0.171702	1.128943	0.203164	-0.171639	1.153591	0.189101	-0.205952	1.147785	0.143488	-0.286354	1.149999	0.054153	-0.321166	1.161808	0.006237	-0.320405	1.225465	0.007816	-0.279443	1.223804	0.050379	-0.006362	1.311238	-0.022338	-0.041643	1.261808	0.036243	-0.043374	1.308588	0.002281	0.012142	1.265452	0.000649	-0.065124	1.335495	-0.062356	-0.031463	1.141016	-0.012251	-0.228056	1.320894	-0.033377	-0.049839	1.281908	0.025779
595	5.950000	-0.129396	1.417347	-0.141068	-0.150093	1.199876	-0.191652	-0.296774	1.061201	0.008690	-0.257205	1.047583	-0.040154	-0.148684	1.113532	0.178613	-0.143973	1.158092	0.153762	-0.252245	1.339151	-0.017230	-0.204241	1.107801	0.164614	-0.171635	1.128927	0.203166	-0.171582	1.153581	0.189112	-0.205910	1.147768	0.143489	-0.286298	1.149990	0.054155	-0.321090	1.161807	0.006251	-0.320362	1.225459	0.007833	-0.279387	1.223797	0.050399	-0.006331	1.311211	-0.022321	-0.041598	1.261779	0.036257	-0.043333	1.308560	0.002294	0.012175	1.265404	0.000663	-0.065086	1.335472	-0.062348	-0.031434	1.140993	-0.012234	-0.228027	1.320906	-0.033348	-0.049793	1.281879	0.025827
596	5.960000	-0.129355	1.417312	-0.141073	-0.150056	1.199837	-0.191635	-0.296734	1.061205	0.008679	-0.257172	1.047597	-0.040174	-0.148637	1.113505	0.178609	-0.143920	1.158064	0.153758	-0.252207	1.339131	-0.017228	-0.204211	1.107773	0.164623	-0.171571	1.128888	0.203158	-0.171527	1.153557	0.189107	-0.205850	1.147757	0.143496	-0.286248	1.149948	0.054190	-0.321033	1.161784	0.006287	-0.320322	1.225438	0.007872	-0.279333	1.223763	0.050421	-0.006281	1.311179	-0.022314	-0.041562	1.261753	0.036270	-0.043295	1.308538	0.002322	0.012217	1.265389	0.000665	-0.065047	1.335443	-0.062344	-0.031400	1.140969	-0.012211	-0.227997	1.320920	-0.033318	-0.049750	1.281855	0.025832
597	5.970000	-0.129308	1.417274	-0.141084	-0.150007	1.199793	-0.191623	-0.296693	1.061211	0.008666	-0.257138	1.047614	-0.040195	-0.148587	1.113483	0.178603	-0.143866	1.158041	0.153750	-0.252166	1.339107	-0.017236	-0.204158	1.107773	0.164624	-0.171530	1.128889	0.203156	-0.171482	1.153553	0.189118	-0.205792	1.147747	0.143502	-0.286207	1.150024	0.053973	-0.320977	1.161784	0.006298	-0.320275	1.225435	0.007894	-0.279275	1.223754	0.050444	-0.006246	1.311155	-0.022284	-0.041512	1.261748	0.036283	-0.043282	1.308389	0.002231	0.012264	1.265354	0.000679	-0.065004	1.335413	-0.062343	-0.031360	1.140945	-0.012187	-0.227966	1.320935	-0.033287	-0.049703	1.281843	0.025856
598	5.980000	-0.129264	1.417226	-0.141101	-0.149955	1.199736	-0.191607	-0.296651	1.061217	0.008655	-0.257104	1.047630	-0.040215	-0.148539	1.113460	0.178602	-0.143809	1.158016	0.153748	-0.252126	1.339075	-0.017246	-0.204144	1.107745	0.164654	-0.171496	1.128852	0.203168	-0.171441	1.153527	0.189121	-0.205763	1.147728	0.143499	-0.286165	1.149996	0.053993	-0.320928	1.161762	0.006330	-0.320239	1.225415	0.007935	-0.279228	1.223725	0.050463	-0.006153	1.311171	-0.022265	-0.041480	1.261720	0.036312	-0.043249	1.308358	0.002244	0.012309	1.265332	0.000682	-0.064961	1.335379	-0.062344	-0.031315	1.140920	-0.012155	-0.227932	1.320950	-0.033257	-0.049665	1.281810	0.025857
599	5.990000	-0.129212	1.417180	-0.141119	-0.149895	1.199683	-0.191594	-0.296608	1.061223	0.008645	-0.257068	1.047645	-0.040235	-0.148488	1.113441	0.178599	-0.143753	1.157996	0.153743	-0.252081	1.339045	-0.017262	-0.204084	1.107745	0.164640	-0.171424	1.128829	0.203168	-0.171375	1.153515	0.189137	-0.205715	1.147719	0.143519	-0.286102	1.149997	0.053999	-0.320882	1.161771	0.006347	-0.320188	1.225429	0.007964	-0.279175	1.223740	0.050500	-0.006129	1.311140	-0.022254	-0.041444	1.261710	0.036320	-0.043207	1.308348	0.002253	0.012349	1.265309	0.000690	-0.064913	1.335347	-0.062345	-0.031266	1.140895	-0.012126	-0.227895	1.320964	-0.033226	-0.049613	1.281801	0.025881
600	6.000000	-0.129158	1.417133	-0.141137	-0.149832	1.199628	-0.191580	-0.296564	1.061229	0.008636	-0.257032	1.047660	-0.040252	-0.148437	1.113423	0.178599	-0.143694	1.157977	0.153742	-0.252033	1.339014	-0.017276	-0.204046	1.107717	0.164659	-0.171367	1.128804	0.203178	-0.171323	1.153487	0.189142	-0.205676	1.147701	0.143520	-0.286063	1.149991	0.054024	-0.320834	1.161765	0.006368	-0.320149	1.225417	0.007991	-0.279125	1.223736	0.050520	-0.006084	1.311130	-0.022233	-0.041394	1.261694	0.036336	-0.043153	1.308332	0.002264	0.012396	1.265303	0.000705	-0.064862	1.335314	-0.062346	-0.031213	1.140871	-0.012094	-0.227853	1.320977	-0.033197	-0.049568	1.281802	0.025890
601	6.010000	-0.129102	1.417089	-0.141152	-0.149768	1.199576	-0.191563	-0.296520	1.061235	0.008630	-0.256995	1.047673	-0.040265	-0.148387	1.113406	0.178603	-0.143635	1.157957	0.153745	-0.251982	1.338986	-0.017286	-0.203982	1.107720	0.164658	-0.171303	1.128788	0.203181	-0.171259	1.153491	0.189151	-0.205616	1.147696	0.143518	-0.286009	1.150004	0.054030	-0.320790	1.161781	0.006377	-0.320086	1.225446	0.008013	-0.279061	1.223749	0.050542	-0.006015	1.311122	-0.022213	-0.041344	1.261694	0.036348	-0.043102	1.308328	0.002286	0.012442	1.265283	0.000717	-0.064809	1.335283	-0.062346	-0.031158	1.140848	-0.012063	-0.227806	1.320988	-0.033168	-0.049518	1.281800	0.025912
602	6.020000	-0.129038	1.417055	-0.141161	-0.149703	1.199536	-0.191550	-0.296474	1.061240	0.008627	-0.256957	1.047684	-0.040276	-0.148333	1.113391	0.178605	-0.143575	1.157941	0.153746	-0.251925	1.338966	-0.017293	-0.203954	1.107708	0.164678	-0.171261	1.128775	0.203190	-0.171208	1.153478	0.189157	-0.205567	1.147696	0.143522	-0.285955	1.149998	0.054046	-0.320746	1.161785	0.006394	-0.320043	1.225451	0.008036	-0.279016	1.223743	0.050552	-0.005992	1.311113	-0.022195	-0.041299	1.261673	0.036360	-0.043023	1.308313	0.002276	0.012511	1.265211	0.000738	-0.064749	1.335257	-0.062342	-0.031103	1.140827	-0.012037	-0.227754	1.320996	-0.033140	-0.049462	1.281786	0.025918
